<svg xmlns="http://www.w3.org/2000/svg" viewBox="0 0 62.17 60.11"><defs><style>.cls-1{fill:#1f1f1f;}</style></defs><title>content-creator</title><g id="Layer_2" data-name="Layer 2"><g id="Layer_1-2" data-name="Layer 1"><path class="cls-1" d="M962.12,408.13v-29.6c0-3.5,2.14-5.63,5.66-5.63h2.63V361.78a3.13,3.13,0,0,1,3.39-3.39h34.64a3.13,3.13,0,0,1,3.41,3.43q0,.81,0,1.62a1.05,1.05,0,0,1-1.16,1.17h-2.94v6.77c.3-.3.57-.52.79-.78a4.93,4.93,0,0,1,7.7,0c.75.86,1.61,1.62,2.41,2.44a4.78,4.78,0,0,1,0,6.95c-.76.79-1.57,1.55-2.32,2.35a1.16,1.16,0,0,0-.32.71q0,12.38,0,24.74c0,.08,0,.17,0,.33h2.77c1,0,1.36.38,1.34,1.38a9.34,9.34,0,0,1-9.06,9c-2.53,0-5.05,0-7.58,0H967.36a9.3,9.3,0,0,1-9.19-7.44,10.88,10.88,0,0,1-.19-1.61c0-.92.35-1.3,1.27-1.31h2.87m37.82-28.85-.1-.16h-13.4a5.61,5.61,0,0,1-.58,0,1,1,0,0,1-.94-1.05,1,1,0,0,1,.93-1,3.71,3.71,0,0,1,.58,0H1000a1.48,1.48,0,0,1,1.5.65c1.25-1.26,2.44-2.48,3.67-3.66a1.56,1.56,0,0,0,.52-1.24c0-4.09,0-8.18,0-12.32H974c-1.24,0-1.53.28-1.53,1.51v42h33.1V393l-1.4,1.48a10.05,10.05,0,0,1-4.94,2.91c-2.23.58-4.45,1.22-6.68,1.81a12.19,12.19,0,0,1-2.76.61c-3.95.07-7.9,0-11.85,0-.85,0-1.34-.4-1.32-1.07s.49-1,1.32-1H989.3c.19-.7.37-1.36.56-2.08H984a1.05,1.05,0,0,1-1.19-1c0-.63.44-1.06,1.19-1.06h6.4l.54-2.07H977.82a1.05,1.05,0,0,1-1.19-1c0-.63.45-1,1.2-1.06H991c.22,0,.57-.08.64-.23.27-.58.44-1.19.66-1.8l-.1,0-1.88,0c-.85,0-1.22-.38-1.23-1.22,0-1.21,0-2.42,0-3.63,0-1,.34-1.36,1.36-1.36h7a1.13,1.13,0,0,0,.71-.18c.63-.54,1.22-1.14,1.82-1.72M960.13,410.2c.06.28.09.5.14.7a7.2,7.2,0,0,0,7,5.51q21.75,0,43.5,0a7.75,7.75,0,0,0,3-.66,7,7,0,0,0,4.18-5.46,1.35,1.35,0,0,0-.24-.06q-9.71,0-19.42,0a.72.72,0,0,0-.51.36c-.37.66-.68,1.35-1,2a3.06,3.06,0,0,1-2.88,1.75q-4.85,0-9.71,0a3.05,3.05,0,0,1-2.87-1.75,19.89,19.89,0,0,1-.92-1.85.8.8,0,0,0-.88-.55c-6.26,0-12.52,0-18.78,0Zm10.28-31c-1.48-.19-2.1,0-2.09,1.76,0,8.8,0,17.61,0,26.42v.73h41.4V388.86c-.61.63-1.09,1.17-1.63,1.67a1.26,1.26,0,0,0-.41,1q0,6.46,0,12.94c0,1.29-.28,1.57-1.55,1.57H972c-1.31,0-1.57-.27-1.57-1.61V379.17Zm0-4.2h-2.72a3.14,3.14,0,0,0-3.47,3.44v29.67h2.07V396.9q0-8.31,0-16.63a3.1,3.1,0,0,1,3.22-3.23h.89Zm43.49,33.13V384.71c-.6.63-1.07,1.16-1.59,1.65a1.32,1.32,0,0,0-.44,1.07c0,6.65,0,13.3,0,19.94v.73Zm-19.12-20.68a9.76,9.76,0,0,0-.75,1.39c-.32.86-.53,1.77-.83,2.64a.76.76,0,0,0,.23.91,18.86,18.86,0,0,1,2.22,2.25,2.29,2.29,0,0,0,3.09.79,9.08,9.08,0,0,0,2.74-1.29l-6.7-6.69m14.63-9.26c-3.5,3.49-7,6.95-10.32,10.32l1.37,1.43,10.35-10.34-1.4-1.41m7.7.4a2.55,2.55,0,0,0,.38-3.72,45.18,45.18,0,0,0-3.39-3.39,2.52,2.52,0,0,0-3.72.38l6.73,6.73m-34.62,31.66a7.28,7.28,0,0,0,.73,1.4,1.57,1.57,0,0,0,1,.62c3.23.05,6.47.05,9.7,0a1.29,1.29,0,0,0,.92-.46,10.49,10.49,0,0,0,.83-1.57Zm24.3-34.68L996.41,385.9l.9.89,10.37-10.37-.92-.88m5.66,5.71-10.32,10.32.92.94,10.34-10.34-.94-.92m-4.16-7.43,6.82,6.81.39-.4-6.79-6.8-.42.39m-17.1,11.51h2.48a.5.5,0,0,0,.28-.12c.63-.6,1.24-1.21,1.94-1.9h-4.7Zm.42,12,2.84-.79-2.06-2.1c-.24.9-.49,1.82-.78,2.89m16.15-34.83h2c0-.68.24-1.42-.47-1.83a1.33,1.33,0,0,0-1.12,0c-.71.41-.43,1.15-.45,1.82" transform="translate(-957.98 -358.39)"/><path class="cls-1" d="M982.84,375h-4.92c-.93,0-1.29-.37-1.29-1.29q0-3.89,0-7.77c0-.93.36-1.3,1.29-1.3h9.84c.93,0,1.3.37,1.3,1.29v7.78c0,.92-.37,1.29-1.3,1.29h-4.92m4.1-8.24h-8.21v6.14h8.21Z" transform="translate(-957.98 -358.39)"/><path class="cls-1" d="M996.38,368.75h3.88c.76,0,1.23.4,1.23,1s-.47,1-1.23,1h-7.9c-.76,0-1.22-.4-1.22-1s.46-1,1.22-1h4" transform="translate(-957.98 -358.39)"/><path class="cls-1" d="M996.27,375h-3.88c-.78,0-1.24-.38-1.25-1s.46-1.06,1.26-1.06h7.83c.78,0,1.24.38,1.26,1s-.47,1.06-1.27,1.06h-4" transform="translate(-957.98 -358.39)"/><path class="cls-1" d="M981.81,383.26h-3.89c-.82,0-1.29-.39-1.29-1s.47-1,1.29-1h7.77c.82,0,1.29.39,1.29,1s-.47,1-1.29,1h-3.88" transform="translate(-957.98 -358.39)"/><path class="cls-1" d="M981.87,385.33h3.89c.76,0,1.22.4,1.22,1s-.47,1-1.23,1q-3.94,0-7.9,0c-.76,0-1.22-.4-1.22-1s.46-1,1.23-1h4" transform="translate(-957.98 -358.39)"/><path class="cls-1" d="M997.35,366.68h-2.91c-.77,0-1.23-.41-1.23-1s.46-1,1.22-1h5.83c.76,0,1.23.41,1.23,1s-.47,1-1.23,1h-2.91" transform="translate(-957.98 -358.39)"/><path class="cls-1" d="M980.75,379.11c-.34,0-.69,0-1,0a1,1,0,0,1-1-1.05,1,1,0,0,1,1-1c.71,0,1.42,0,2.13,0a1,1,0,0,1,1,1.05,1,1,0,0,1-1.05,1c-.35,0-.69,0-1,0" transform="translate(-957.98 -358.39)"/><path class="cls-1" d="M978.71,393.63c.34,0,.69,0,1,0a1,1,0,0,1,1,1,1,1,0,0,1-1,1c-.73,0-1.46,0-2.2,0a1,1,0,0,1-1-1,1,1,0,0,1,1-1c.36,0,.73,0,1.1,0Z" transform="translate(-957.98 -358.39)"/></g></g></svg>