<svg xmlns="http://www.w3.org/2000/svg" viewBox="0 0 89.81 79.3"><defs><style>.cls-1{opacity:0.09;isolation:isolate;}.cls-2{fill:#ededed;}</style></defs><title>digital-agency</title><g id="Layer_2" data-name="Layer 2"><g id="Layer_1-2" data-name="Layer 1"><path class="cls-2" d="M570.18,233.86c-.08.34-.17.67-.23,1a13.89,13.89,0,0,1-14.59,11.26,13.64,13.64,0,0,1-12.73-12.69,141.9,141.9,0,0,1,0-14.29,13.61,13.61,0,0,1,13.89-12.67A13.79,13.79,0,0,1,570,218.29a3,3,0,0,0,.16.48Zm-3.82-7.49h0c0-2.22.08-4.44,0-6.66a10,10,0,0,0-20,.3q-.09,6.3,0,12.61a10,10,0,0,0,20,.32c.1-2.18,0-4.38,0-6.57" transform="translate(-480.37 -166.84)"/><path class="cls-2" d="M560,170.65H489.55v47.62h44.94a5.9,5.9,0,0,1,1.39.13,1.77,1.77,0,0,1,1.34,1.82,1.74,1.74,0,0,1-1.36,1.71,4.24,4.24,0,0,1-1.12.13H488.26c-1.87,0-2.54-.66-2.54-2.53q0-25.08,0-50.16c0-1.94.62-2.55,2.58-2.55h72.87c2,0,2.64.63,2.64,2.6v28.94c0,1.7-.67,2.62-1.9,2.62s-1.9-.91-1.9-2.63V170.65Z" transform="translate(-480.37 -166.84)"/><path class="cls-2" d="M510.45,238.32c-7.87,0-15.73,0-23.6,0A6,6,0,0,1,481,235a5.93,5.93,0,0,1,4.73-8.47c.5,0,1-.05,1.49-.06h47.19c.32,0,.65,0,1,0a1.87,1.87,0,1,1-.09,3.73c-1.63,0-3.27,0-4.91,0-.68,0-1.24,0-1.66.74a1.84,1.84,0,0,1-1.34.65c-1.72.07-3.46.09-5.17,0a2.4,2.4,0,0,1-1.52-.84,1.24,1.24,0,0,0-1.06-.54H486.72a2.27,2.27,0,0,0-2.56,2.16c0,1.34,1,2.21,2.61,2.21h47.8a5.31,5.31,0,0,1,1.38.14,1.76,1.76,0,0,1,1.27,1.87,1.78,1.78,0,0,1-1.52,1.68,8.24,8.24,0,0,1-1.22.07q-12,0-24,0" transform="translate(-480.37 -166.84)"/><path class="cls-2" d="M541.14,193.88a35.47,35.47,0,0,1,3.72.55,17.77,17.77,0,0,1,3.6,1.29,1.81,1.81,0,0,1,.94,2.63c-.52,1-1.51,1.15-2.73.67-4.43-1.77-8.83-2.06-13.12.45a16.18,16.18,0,0,1-13,1.93,16.39,16.39,0,0,1-4.33-1.83c-3.16-2-6.55-2.15-10.05-1.59a15.94,15.94,0,0,0-3.4,1.06c-1.17.46-2.14.28-2.67-.65a1.86,1.86,0,0,1,.86-2.67,13.67,13.67,0,0,1,5.85-1.65c1.55-.15,1.55-.12,1.77-1.69A16.48,16.48,0,0,1,522,178.81a16.3,16.3,0,0,1,18.46,11.65c.33,1.11.47,2.28.69,3.42m-28.91.25c2.73.22,4.82,1.73,7.11,2.81a14.61,14.61,0,0,0,3.92,1.14c3.15.5,6-.49,8.69-2a18.78,18.78,0,0,1,4.27-1.71c.92-.24,1.09-.57.95-1.4a12.57,12.57,0,0,0-20-8,12.37,12.37,0,0,0-4.92,9.19" transform="translate(-480.37 -166.84)"/><path class="cls-2" d="M525.3,210.32a22.2,22.2,0,0,1-9.58-2.08c-1.21-.58-1.7-1.57-1.25-2.61a1.92,1.92,0,0,1,2.75-.85,17.55,17.55,0,0,0,8.49,1.72,16.32,16.32,0,0,0,5.67-1.33c.41-.17.81-.35,1.22-.49a1.86,1.86,0,0,1,2.41,1,1.81,1.81,0,0,1-1,2.46,55.18,55.18,0,0,1-5.63,1.83,19,19,0,0,1-3,.36" transform="translate(-480.37 -166.84)"/><path class="cls-2" d="M558.24,218.9c0,.7,0,1.4,0,2.1a1.9,1.9,0,0,1-1.86,2,1.84,1.84,0,0,1-1.91-2q-.09-2.23,0-4.47a1.89,1.89,0,0,1,1.93-2,2,2,0,0,1,1.84,2.07c0,.73,0,1.46,0,2.19" transform="translate(-480.37 -166.84)"/></g></g></svg>