<svg xmlns="http://www.w3.org/2000/svg" viewBox="0 0 80.5 80.51"><defs><style>.cls-1{opacity:0.09;isolation:isolate;}.cls-2{fill:#ededed;}</style></defs><title>event-orgenizer</title><g id="Layer_2" data-name="Layer 2"><g id="Layer_1-2" data-name="Layer 1"><path class="cls-2" d="M845.59,172.75c0,.81,0,1.61,0,2.41a4.92,4.92,0,0,0,1.21,3.29,4.85,4.85,0,0,0,4.14,1.77,5,5,0,0,0,4.71-5v-2.48h30.19c0,.86,0,1.7,0,2.54a5,5,0,0,0,10-.14v-2.38c2.47-.21,4.8-.08,6.44,2.13a5.53,5.53,0,0,1,1.11,3.38v19.27c0,.09,0,.18,0,.3h-5v-10H843.07v34.44c0,.64.11.75.74.75h29.43v5h-29.6a5.49,5.49,0,0,1-5.53-4.65,5.32,5.32,0,0,1-.06-1c0-1.72,0-3.45,0-5.17l0-24.67c0-2.18,0-4.35,0-6.53,0-2.58,0-5.17,0-7.75a5.47,5.47,0,0,1,4.69-5.51,24.67,24.67,0,0,1,2.86,0" transform="translate(-838.04 -162.62)"/><path class="cls-2" d="M918.54,223a20.13,20.13,0,1,1-20.37-20.16A20.16,20.16,0,0,1,918.54,223m-20.11-15.12A15.09,15.09,0,1,0,913.5,223a15.1,15.1,0,0,0-15.07-15.12" transform="translate(-838.04 -162.62)"/><rect class="cls-2" x="25.16" y="45.31" width="10.02" height="10.04"/><rect class="cls-2" x="10.1" y="45.31" width="10.02" height="10.03"/><rect class="cls-2" x="25.16" y="30.23" width="10.04" height="10.01"/><rect class="cls-2" x="10.1" y="30.23" width="10.02" height="10"/><path class="cls-2" d="M878.29,192.84h10v10h-9.57c-.33,0-.47,0-.47-.44,0-3.07,0-6.14,0-9.21Z" transform="translate(-838.04 -162.62)"/><path class="cls-2" d="M888.34,170.17c0-1.68,0-3.35,0-5a2.52,2.52,0,0,1,3.52-2.3,2.42,2.42,0,0,1,1.52,2.29c0,3.37,0,6.75,0,10.12a2.52,2.52,0,0,1-5-.06c0-1.67,0-3.35,0-5" transform="translate(-838.04 -162.62)"/><path class="cls-2" d="M848.12,170.19v-5A2.5,2.5,0,0,1,852,163a2.34,2.34,0,0,1,1.16,2.08c0,2.44,0,4.88,0,7.33,0,.93,0,1.86,0,2.79a2.51,2.51,0,0,1-4,2,2.19,2.19,0,0,1-1-1.82c0-1.74,0-3.48,0-5.21Z" transform="translate(-838.04 -162.62)"/><path class="cls-2" d="M896.65,227c.42-.44.81-.86,1.22-1.26l5.76-5.76c.69-.69,1.37-1.41,2.1-2.06a2.5,2.5,0,0,1,4.08,1.8,2.45,2.45,0,0,1-.81,2l-5.52,5.53c-1.63,1.64-3.27,3.27-4.91,4.91a2.55,2.55,0,0,1-3.86,0q-2-2-4-4c-1-1-1.92-1.93-2.88-2.88a2.51,2.51,0,1,1,3.35-3.75c1.24,1.2,2.45,2.43,3.67,3.65l1.77,1.79" transform="translate(-838.04 -162.62)"/></g></g></svg>