<svg xmlns="http://www.w3.org/2000/svg" viewBox="0 0 67.6 59.69"><defs><style>.cls-1{fill:#1f1f1f;}</style></defs><title>graphic-design</title><g id="Layer_2" data-name="Layer 2"><g id="Layer_1-2" data-name="Layer 1"><path class="cls-1" d="M743.27,409.32c0,.25-.12.5-.17.76a10.45,10.45,0,0,1-11,8.47,10.28,10.28,0,0,1-9.58-9.56,107.07,107.07,0,0,1,0-10.75A10.25,10.25,0,0,1,733,388.7a10.37,10.37,0,0,1,10.15,8.9,2.53,2.53,0,0,0,.12.36Zm-2.87-5.64h0c0-1.67.06-3.34,0-5a7.54,7.54,0,0,0-15.07.22c0,3.17,0,6.33,0,9.5a7.54,7.54,0,0,0,15.07.24c.07-1.65,0-3.3,0-4.95" transform="translate(-675.68 -358.88)"/><path class="cls-1" d="M735.62,361.74h-53v35.85h33.83a4.62,4.62,0,0,1,1.05.1,1.35,1.35,0,0,1,1,1.37,1.32,1.32,0,0,1-1,1.29,3.39,3.39,0,0,1-.84.1h-35c-1.4,0-1.91-.5-1.91-1.9V360.8c0-1.47.47-1.92,1.94-1.92H736.5c1.5,0,2,.47,2,1.95v21.78c0,1.29-.51,2-1.43,2s-1.43-.69-1.43-2V361.74Z" transform="translate(-675.68 -358.88)"/><path class="cls-1" d="M698.31,412.68H680.56a4.55,4.55,0,0,1-4.43-2.53,4.47,4.47,0,0,1,3.57-6.38c.37,0,.75,0,1.12,0h35.52c.24,0,.48,0,.72,0a1.41,1.41,0,1,1-.06,2.81c-1.23,0-2.46,0-3.7,0-.51,0-.93,0-1.25.55a1.35,1.35,0,0,1-1,.49,38.82,38.82,0,0,1-3.89,0A1.87,1.87,0,0,1,706,407a.93.93,0,0,0-.8-.41H680.46a1.7,1.7,0,0,0-1.93,1.63c0,1,.75,1.65,2,1.65h36a4,4,0,0,1,1,.1,1.3,1.3,0,0,1,1,1.41,1.33,1.33,0,0,1-1.14,1.26,5.61,5.61,0,0,1-.92.06H698.31" transform="translate(-675.68 -358.88)"/><path class="cls-1" d="M721.42,379.23a26.61,26.61,0,0,1,2.8.41,13.91,13.91,0,0,1,2.71,1,1.38,1.38,0,0,1,.71,2c-.4.73-1.14.87-2.06.5-3.33-1.33-6.65-1.55-9.88.34a12.19,12.19,0,0,1-9.75,1.46,12.69,12.69,0,0,1-3.26-1.38,10.47,10.47,0,0,0-7.57-1.2,12.44,12.44,0,0,0-2.56.8,1.47,1.47,0,0,1-2-.49,1.41,1.41,0,0,1,.66-2,10.41,10.41,0,0,1,4.4-1.24c1.16-.12,1.16-.09,1.33-1.27A12.41,12.41,0,0,1,707,367.88a12.28,12.28,0,0,1,13.9,8.77c.25.84.35,1.72.52,2.58m-21.76.19c2.05.16,3.63,1.3,5.35,2.11a10.64,10.64,0,0,0,3,.85,9.84,9.84,0,0,0,6.54-1.51,14.26,14.26,0,0,1,3.22-1.29c.69-.18.81-.43.71-1.05a9.46,9.46,0,0,0-15.07-6,9.27,9.27,0,0,0-3.7,6.92" transform="translate(-675.68 -358.88)"/><path class="cls-1" d="M709.49,391.6a16.66,16.66,0,0,1-7.21-1.57,1.48,1.48,0,0,1-.94-2,1.45,1.45,0,0,1,2.07-.64,13.2,13.2,0,0,0,6.39,1.29,12.27,12.27,0,0,0,4.27-1c.31-.13.61-.27.92-.37a1.39,1.39,0,0,1,1.81.74A1.35,1.35,0,0,1,716,390a41.14,41.14,0,0,1-4.24,1.38,14.87,14.87,0,0,1-2.28.27" transform="translate(-675.68 -358.88)"/><path class="cls-1" d="M734.29,398.06c0,.53,0,1.06,0,1.58a1.42,1.42,0,0,1-1.39,1.53,1.39,1.39,0,0,1-1.44-1.48q-.08-1.68,0-3.36a1.42,1.42,0,0,1,1.45-1.47,1.45,1.45,0,0,1,1.39,1.55c0,.55,0,1.1,0,1.65" transform="translate(-675.68 -358.88)"/></g></g></svg>