<svg xmlns="http://www.w3.org/2000/svg" xmlns:xlink="http://www.w3.org/1999/xlink" viewBox="0 0 48.02 80.11"><defs><style>.cls-1{fill:none;}.cls-2{opacity:0.09;isolation:isolate;}.cls-3{clip-path:url(#clip-path);}.cls-4{fill:#ededed;}</style><clipPath id="clip-path" transform="translate(-171.12 -164.85)"><rect class="cls-1" width="1368" height="177"/></clipPath></defs><title>it-solution</title><g id="Layer_2" data-name="Layer 2"><g id="Layer_1-2" data-name="Layer 1"><path class="cls-4" d="M202.43,215.13h-4.24c.26-1,.51-2,.78-3q1.38-5.19,2.77-10.4a1,1,0,0,0-.4-1.12,1,1,0,0,0-1.23.08c-1.46,1-2.92,2.08-4.36,3.13a.84.84,0,0,1-1.19,0c-1.39-1.07-2.85-2.05-4.27-3.08a1,1,0,0,0-1.31-.15,1.08,1.08,0,0,0-.4,1.31q1.41,5.25,2.81,10.51c.23.87.45,1.74.71,2.71h-.8c-1,0-2,0-3,0-.32,0-.47-.08-.54-.41a7.94,7.94,0,0,0-3-4.76A16.94,16.94,0,0,1,178,198.16a15.53,15.53,0,0,1,.28-5.44,18.23,18.23,0,0,1,2-5.15,16.54,16.54,0,0,1,7.1-6.59,17.21,17.21,0,0,1,22.76,7.15,16.32,16.32,0,0,1,2.08,9,16.83,16.83,0,0,1-6.46,12.65,8.44,8.44,0,0,0-3.38,5.36" transform="translate(-171.12 -164.85)"/><path class="cls-4" d="M183.07,211.3a6.18,6.18,0,0,1,2.5,3,.66.66,0,0,1-.15.79,13.07,13.07,0,0,0,3.11,20.06,13,13,0,0,0,19-7.2,12.74,12.74,0,0,0-2.67-12.8.81.81,0,0,1-.15-.94,6.61,6.61,0,0,1,2.53-3.06c.54.59,1.12,1.18,1.64,1.82a1.79,1.79,0,0,0,1.6.75l3.13-.13a1.59,1.59,0,0,1,1.68,1c.25.57.48,1.14.7,1.72a1.61,1.61,0,0,1-.49,1.92q-1,1-2.13,1.92a2.07,2.07,0,0,0-.73,1.88c.08,1.3,0,2.62,0,3.92a1.84,1.84,0,0,0,.54,1.54l2.28,2.08a1.57,1.57,0,0,1,.47,1.91c-.25.64-.49,1.29-.77,1.92a1.37,1.37,0,0,1-1.36.84c-1,0-2,0-3-.12a2.21,2.21,0,0,0-1.94.85,30.85,30.85,0,0,1-2.62,2.62,2.17,2.17,0,0,0-.9,2c.07.94.09,1.88.13,2.81a1.52,1.52,0,0,1-1.07,1.65l-1.51.64a1.7,1.7,0,0,1-2.15-.46c-.67-.74-1.34-1.46-2-2.21a1.75,1.75,0,0,0-1.42-.57l-4.45,0a1.7,1.7,0,0,0-1.37.59c-.68.75-1.36,1.49-2,2.25a1.63,1.63,0,0,1-1.9.54,19.87,19.87,0,0,1-1.92-.79,1.65,1.65,0,0,1-.91-1.71c.07-1,.12-2,.18-3a1.9,1.9,0,0,0-.68-1.54c-1-.95-2-1.93-2.92-2.93a1.87,1.87,0,0,0-1.49-.68c-.94,0-1.87.1-2.81.18a1.86,1.86,0,0,1-2.15-1.25q-.32-.72-.6-1.47a1.51,1.51,0,0,1,.45-1.9c.74-.69,1.49-1.37,2.25-2a2.1,2.1,0,0,0,.74-1.83c-.05-1.31,0-2.62,0-3.93a1.84,1.84,0,0,0-.63-1.55l-2.37-2.14a1.64,1.64,0,0,1-.5-2c.22-.54.46-1.08.68-1.61a1.54,1.54,0,0,1,1.59-1q1.72.06,3.45.15a1.74,1.74,0,0,0,1.51-.71c.49-.61,1-1.17,1.58-1.77" transform="translate(-171.12 -164.85)"/><path class="cls-4" d="M202,224c-.09,1.1-.09,2.17-.26,3.22a4.54,4.54,0,0,1-4.37,3.66c-1.49,0-3,0-4.46,0a4.58,4.58,0,0,1-4.43-4c-.1-.94-.12-1.9-.18-2.9Z" transform="translate(-171.12 -164.85)"/><path class="cls-4" d="M188.21,221.91c-.08-1.55-.16-3.1-.25-4.69h14.35c-.08,1.55-.16,3.1-.25,4.69Z" transform="translate(-171.12 -164.85)"/><path class="cls-4" d="M194.16,215.16l-3-11.13.12-.07L194.2,206c.83.59,1.05.6,1.89,0l3-2.14c-.15.58-.25,1-.37,1.47-.83,3.1-1.66,6.2-2.47,9.31-.11.41-.29.54-.69.51s-.92,0-1.41,0" transform="translate(-171.12 -164.85)"/><path class="cls-4" d="M218.29,172.6c.3.28.71.49.82.81a1.27,1.27,0,0,1-.25,1c-1,1.12-2.13,2.17-3.2,3.25-.52.51-1,1-1.55,1.53a1,1,0,0,1-1.46.05,1,1,0,0,1,0-1.46q2.37-2.4,4.77-4.76a4.15,4.15,0,0,1,.84-.46" transform="translate(-171.12 -164.85)"/><path class="cls-4" d="M196.13,169.27c0,1.08,0,2.16,0,3.24,0,.74-.37,1.15-1,1.16s-1-.42-1-1.14q0-3.27,0-6.53a1,1,0,0,1,1-1.15c.63,0,1,.45,1,1.18,0,1.08,0,2.16,0,3.24Z" transform="translate(-171.12 -164.85)"/><path class="cls-4" d="M172.12,173a4.89,4.89,0,0,1,.87.55q2.32,2.29,4.62,4.62a1,1,0,0,1,.07,1.49,1,1,0,0,1-1.45,0c-1.55-1.53-3.09-3.08-4.63-4.61l-.22-.24a.85.85,0,0,1-.11-1.08,3.78,3.78,0,0,1,.85-.68" transform="translate(-171.12 -164.85)"/><path class="cls-4" d="M186,174a1,1,0,0,1-.74,1,.91.91,0,0,1-1.15-.51c-.65-1.38-1.28-2.76-1.92-4.14-.31-.69-.64-1.37-.94-2.07a1,1,0,1,1,1.79-.83c.95,2,1.88,4.08,2.82,6.12a3.48,3.48,0,0,1,.14.47" transform="translate(-171.12 -164.85)"/><path class="cls-4" d="M209.21,167.55a3.87,3.87,0,0,1-.15.4q-1.37,3-2.76,6a1,1,0,0,1-1.38.6,1,1,0,0,1-.4-1.41q1.38-3,2.78-6.07a1,1,0,0,1,1.15-.61,1,1,0,0,1,.76,1.07" transform="translate(-171.12 -164.85)"/></g></g></svg>