<svg xmlns="http://www.w3.org/2000/svg" viewBox="0 0 61.86 56.99"><defs><style>.cls-1{fill:#1f1f1f;}</style></defs><title>it-support</title><g id="Layer_2" data-name="Layer 2"><g id="Layer_1-2" data-name="Layer 1"><path class="cls-1" d="M881,363.36h0a4.83,4.83,0,0,0-.43-2,4,4,0,0,0-3.83-2.1c-2,0-4.06,0-6,0H829.79l-2.55,0c-1.34,0-2.85,0-4.33,0a3.83,3.83,0,0,0-3.72,3.79c0,.43,0,.86,0,1.3,0,.67,0,1.37,0,2a2.25,2.25,0,0,0,1.28,2.37l.37.18.36-.21a2.26,2.26,0,0,0,1.13-2.22c0-.81,0-1.65,0-2.48,0-.26,0-.52,0-.78,0-.65.24-.88.89-.88h53.87a1,1,0,0,1,.44.09h-6.9l.17-.06H870a5.48,5.48,0,0,0-.91,0h-8.68l-.05.75v.24c-.33.27-.68.53-1,.8-.2-.2-.39-.41-.59-.6a1.52,1.52,0,0,0-2.21-.13,1.5,1.5,0,0,0-.53,1.09,1.65,1.65,0,0,0,.57,1.24,7.46,7.46,0,0,0,.61.53l-.73,1-.74-.43a1.56,1.56,0,1,0-1.54,2.7l.72.43-.43,1c-.33-.09-.65-.17-1-.23a1.65,1.65,0,0,0-1.25.19,1.5,1.5,0,0,0-.61,1,1.53,1.53,0,0,0,1.21,1.86l.83.22-.15,1.12h-.78a1.57,1.57,0,0,0-1.73,1.47,1.41,1.41,0,0,0,.34,1.09,1.77,1.77,0,0,0,1.31.55h.86c.06.39.11.77.16,1.13-.19.06-.38.12-.59.17l0,0-.31.08a1.48,1.48,0,0,0-1.08,1.9,1.45,1.45,0,0,0,1.85,1.06l1-.23.43,1.06-.81.47a1.57,1.57,0,0,0,.29,2.86,1.65,1.65,0,0,0,1.31-.2l.77-.44.72.93c-.22.2-.45.4-.66.61a1.5,1.5,0,0,0-.07,2.2,1.48,1.48,0,0,0,1.17.5,1.7,1.7,0,0,0,1.07-.49l.36-.35.31-.31.89.71c-.15.25-.29.5-.43.75a1.7,1.7,0,0,0-.21,1.33,1.54,1.54,0,0,0,.77.9,1.49,1.49,0,0,0,2.11-.66c.08-.13.15-.26.23-.41l.21-.38c.35.14.7.29,1.07.46-.08.3-.16.6-.23.9a1.55,1.55,0,0,0,2.18,1.81,1.68,1.68,0,0,0,.81-1l.12-.47.12-.44,1.11.16v0c0,.24,0,.49,0,.74a1.57,1.57,0,1,0,3.12,0c0-.25,0-.51,0-.77l.27,0a4.54,4.54,0,0,0,.57-.09,1.9,1.9,0,0,1,.31-.06c0,.11.05.24.07.33s.07.35.12.53a1.79,1.79,0,0,0,.87,1.09,1.44,1.44,0,0,0,1.13.08,1.52,1.52,0,0,0,1-2c-.08-.27-.15-.54-.22-.82.41-.18.8-.34,1.19-.49h.56l.74-.05v-4.2l-1.2.71a13.6,13.6,0,0,1-5.38,1.87v-1.81a11.29,11.29,0,0,0,5.31-2.22l1.25.87v-6.85l-1.43,1.83a8.56,8.56,0,0,1-5.91,3.33,8.22,8.22,0,0,1-7.4-13.13,8,8,0,0,1,6.66-3.29,8.12,8.12,0,0,1,6.65,3.42l1.43,1.82v-6.9l-1.25.88a12.68,12.68,0,0,0-5.34-2.23v-1a2.78,2.78,0,0,0-.24-1.53l6.81,3v-3.19a1,1,0,0,1,.15.39,2.23,2.23,0,0,1,0,.42c0,.15,0,.32,0,.5v34.35H822.29V396.1c0-3,0-6.13,0-9.2a2.21,2.21,0,0,0-1.16-2.19l-.31-.15-.31.12a2.14,2.14,0,0,0-1.35,2.33c0,2.08,0,4.19,0,6.24v.37c0,.67,0,1.33,0,2v2.74q0,3.34,0,6.67a3.88,3.88,0,0,0,1.21,2.78,3.56,3.56,0,0,0,2.57,1.05h.42c1.17,0,2.38-.06,3.57-.06l3.67,0c1.4,0,2.84,0,4.27,0h36.22l1.31,0c.59,0,1.19,0,1.77,0l1.31,0c.49,0,1,0,1.53,0a3.87,3.87,0,0,0,4-4v-18c0-7.68,0-15.63,0-23.44m-3.14,42c0,.19-.35.45-.89.45H823.66l-.35,0a1.58,1.58,0,0,1-.38,0,.78.78,0,0,1-.64-.89c0-.92,0-1.84,0-2.77v-.56h55.59c0,.14,0,.28,0,.42v.15c0,1.1,0,2.14,0,3.19m-21.21-30.2a12.89,12.89,0,0,1,2.68-6.48l1.24,1.28-.18.3,0,0a15.56,15.56,0,0,0-1.15,2.14,14.8,14.8,0,0,0-.69,2.34v0c0,.12-.06.23-.09.35Zm1.8,3.17a11.36,11.36,0,0,0,2.17,5.24l-1.29,1.25a12.67,12.67,0,0,1-2.68-6.49Zm3.15,8.76,1.29-1.25a11.32,11.32,0,0,0,5.19,2.15v1.8a12.78,12.78,0,0,1-6.48-2.7m6.53-21.56a11,11,0,0,0-5.2,2.11l-1.29-1.27a15.1,15.1,0,0,1,4.54-2.38l2-.66Z" transform="translate(-819.16 -359.24)"/><path class="cls-1" d="M830.8,387.46l-.1,0a1.88,1.88,0,0,0-1.22.84,1.43,1.43,0,0,0-.12,1.15c.1.34.54,1.42,2.16,1l.73-.19c.09.19.18.37.28.55a3.93,3.93,0,0,0,.35.52l.19.26-.35.32a4.38,4.38,0,0,0-.38.35,1.47,1.47,0,0,0-.13,2.14,1.5,1.5,0,0,0,2.24.12,9.16,9.16,0,0,0,.77-.75c.31.22.64.42.95.6l.36.21c0,.12-.07.29-.1.42-.14.54-.51,2,.87,2.4a2.29,2.29,0,0,0,.54.08,1.36,1.36,0,0,0,.63-.15,2.25,2.25,0,0,0,.93-1.48c.05-.16.1-.35.15-.47H840a4.62,4.62,0,0,0,.66-.06l.37,0a3.93,3.93,0,0,1,.1.44,4.39,4.39,0,0,0,.15.6,1.53,1.53,0,0,0,1.9,1.1,1.45,1.45,0,0,0,1.11-1.87c-.05-.25-.12-.48-.19-.71l-.09-.32c.43-.24.88-.47,1.35-.72l0,0c.22.24.44.48.69.72a1.49,1.49,0,0,0,2.19,0,1.47,1.47,0,0,0,0-2.11,8.35,8.35,0,0,0-.78-.79,9.55,9.55,0,0,0,.78-1.32,8.68,8.68,0,0,0,1.08.28,1.55,1.55,0,0,0,1.21-.21,1.59,1.59,0,0,0-.51-2.79l-.33-.08-.68-.2q0-.39,0-.78c0-.24,0-.48,0-.73.23-.06.44-.14.66-.22s.31-.11.47-.15a1.48,1.48,0,0,0,.9-.71,1.53,1.53,0,0,0,0-1.21,1.47,1.47,0,0,0-1.88-1l-.25.07a6,6,0,0,0-.69.21,3.74,3.74,0,0,0-.45-.87c-.07-.1-.13-.2-.19-.3s-.11-.21-.16-.32a7,7,0,0,0,.94-.95,1.16,1.16,0,0,0,.2-.87,1.6,1.6,0,0,0-.53-1,1.66,1.66,0,0,0-1.82-.09,6.59,6.59,0,0,0-.88.87l-1.41-.76.24-.93a1.53,1.53,0,0,0-1-1.93,1.55,1.55,0,0,0-1.16,0,1.64,1.64,0,0,0-.81.95,7,7,0,0,0-.21.75l-.09.35h-1.54q-.13-.45-.24-.87a1.53,1.53,0,0,0-1.88-1.27,1.42,1.42,0,0,0-.92.64,1.77,1.77,0,0,0-.19,1.4c.08.29.15.59.22.87l-1.31.76-.29-.29-.31-.3a1.6,1.6,0,0,0-2.34-.12,1.56,1.56,0,0,0,.11,2.29l.63.62-.32.52a3.58,3.58,0,0,0-.27.56l-.15.32a4.51,4.51,0,0,1-.52-.17l-.39-.13a1.58,1.58,0,0,0-1.91,2.18,1.69,1.69,0,0,0,1.06.79l.91.26a6.26,6.26,0,0,0,0,.87v0c0,.24,0,.49,0,.64l-.59.17m3.69-.91a5.81,5.81,0,1,1,11.61,0,5.76,5.76,0,0,1-1.79,4.15,5.41,5.41,0,0,1-3.95,1.59h-.05a5.81,5.81,0,0,1-4.14-1.71,5.64,5.64,0,0,1-1.68-4" transform="translate(-819.16 -359.24)"/><path class="cls-1" d="M864.59,413.12h-3.14V409h-3.09v4.12H841.82v-4.13h-3.11v4.18h-3a1.55,1.55,0,1,0-.11,3.1h28.88l.29,0a1.55,1.55,0,0,0-.15-3.09" transform="translate(-819.16 -359.24)"/><path class="cls-1" d="M819.53,379.73h0a1.42,1.42,0,0,0,1.08.35H821a1.22,1.22,0,0,0,1.3-1.31c0-1.54,0-2.81,0-4a1.3,1.3,0,0,0-.37-1,1.39,1.39,0,0,0-1.11-.31h-.2a1.36,1.36,0,0,0-1.08.33,1.24,1.24,0,0,0-.36,1c0,.44,0,.89,0,1.34v1.31c0,.45,0,.9,0,1.35a1.27,1.27,0,0,0,.35,1" transform="translate(-819.16 -359.24)"/></g></g></svg>