<svg xmlns="http://www.w3.org/2000/svg" viewBox="0 0 42.14 47.59"><defs><style>.cls-1{fill:#b2b5b4;}</style></defs><title>Asset 2</title><g id="Layer_2" data-name="Layer 2"><g id="Layer_1-2" data-name="Layer 1"><path class="cls-1" d="M304.14,109.26h-11c0-.44,0-.86-.06-1.28a8.89,8.89,0,0,0-1.25-3.71c-.74-1.33-1.6-2.59-2.32-3.93a18.41,18.41,0,0,1-1.6-3.54,10.89,10.89,0,0,1,4-11.64,11.16,11.16,0,0,1,17.85,7.6,10.45,10.45,0,0,1-1.4,6.69c-.74,1.28-1.53,2.53-2.28,3.79a12.51,12.51,0,0,0-1.69,4c-.12.66-.14,1.34-.21,2.06m-5.53-1.91H302c.2,0,.39,0,.44-.28A12,12,0,0,1,304,103c.89-1.58,1.85-3.12,2.75-4.71a8.33,8.33,0,0,0,1-5.9,8.84,8.84,0,0,0-6.7-7.26,8.65,8.65,0,0,0-9.4,3,8.54,8.54,0,0,0-1.27,9.68c.61,1.31,1.43,2.53,2.17,3.78a16,16,0,0,1,2.37,5.5c.05.3.24.28.45.28h3.29" transform="translate(-277.57 -72.94)"/><path class="cls-1" d="M298.64,112.77h-4.28c-.78,0-1.29-.45-1.28-1.13a1.14,1.14,0,0,1,1.25-1.13H303a1.16,1.16,0,0,1,1.19.94,1.11,1.11,0,0,1-.66,1.22,1.77,1.77,0,0,1-.65.09h-4.23" transform="translate(-277.57 -72.94)"/><path class="cls-1" d="M298.63,116.25c-1.42,0-2.85,0-4.28,0a1.12,1.12,0,0,1-1.27-1.13,1.14,1.14,0,0,1,1.25-1.12q4.31,0,8.61,0a1.14,1.14,0,0,1,1.25,1.12,1.12,1.12,0,0,1-1.27,1.13q-2.15,0-4.29,0" transform="translate(-277.57 -72.94)"/><path class="cls-1" d="M302.1,117.51c.12,1.6-1.54,3-3.47,3s-3.6-1.44-3.46-3Z" transform="translate(-277.57 -72.94)"/><path class="cls-1" d="M313.81,108.09a1,1,0,0,1-.57,1,.89.89,0,0,1-1-.16q-1.81-1.78-3.59-3.59a1,1,0,0,1,0-1.36,1,1,0,0,1,1.39,0q1.75,1.74,3.49,3.49a.55.55,0,0,1,.12.14c.08.18.16.36.19.45" transform="translate(-277.57 -72.94)"/><path class="cls-1" d="M284.6,109.18a1,1,0,0,1-1.05-.56,1,1,0,0,1,.22-1.12l2.52-2.52c.33-.32.64-.65,1-1a1,1,0,0,1,1.39,0,.94.94,0,0,1,0,1.38q-1.74,1.78-3.53,3.52a1.72,1.72,0,0,1-.51.29" transform="translate(-277.57 -72.94)"/><path class="cls-1" d="M287.82,84.32a2.81,2.81,0,0,1-.59-.35q-1.73-1.69-3.43-3.42a1,1,0,1,1,1.36-1.39l3.45,3.45a.94.94,0,0,1,.24,1.11c-.16.39-.46.57-1,.6" transform="translate(-277.57 -72.94)"/><path class="cls-1" d="M313.81,80a2.22,2.22,0,0,1-.32.55Q311.78,82.28,310,84a1,1,0,1,1-1.37-1.38l3.46-3.45a.93.93,0,0,1,1.12-.22c.38.16.56.47.56,1" transform="translate(-277.57 -72.94)"/><path class="cls-1" d="M316.22,95h-2.41a.94.94,0,0,1-1.05-1c0-.59.4-1,1.08-1h4.75a1,1,0,0,1,1.12,1,1,1,0,0,1-1.09,1h-2.4" transform="translate(-277.57 -72.94)"/><path class="cls-1" d="M281.05,95h-2.4a1,1,0,1,1,0-1.92h4.8a1,1,0,0,1,1.07,1,.94.94,0,0,1-1.06.94h-2.4" transform="translate(-277.57 -72.94)"/><path class="cls-1" d="M297.67,76.37c0-.78,0-1.57,0-2.35a1,1,0,1,1,1.93,0c0,1.6,0,3.21,0,4.81a.94.94,0,0,1-.94,1.06,1,1,0,0,1-1-1.07V76.37" transform="translate(-277.57 -72.94)"/><path class="cls-1" d="M292.88,94H291a7.53,7.53,0,0,1,7.59-7.59v1.86c-3.46.37-5.37,2.26-5.75,5.73" transform="translate(-277.57 -72.94)"/></g></g></svg>