<svg xmlns="http://www.w3.org/2000/svg" viewBox="0 0 72.38 72.37"><defs><style>.cls-1{fill:#1f1f1f;}</style></defs><title>motion-graphic</title><g id="Layer_2" data-name="Layer 2"><g id="Layer_1-2" data-name="Layer 1"><path class="cls-1" d="M274.53,385.85v4.66h6.38V389.4c0-5.25,0-10.48,0-15.72a4.13,4.13,0,0,1,.13-1.27,1.43,1.43,0,0,1,1.64-1.06,1.48,1.48,0,0,1,1.41,1.37,6,6,0,0,1,0,.85v27.59c0,1.88-.43,2.31-2.34,2.31h-24.9v7.24c2,0,4-.07,6,0a2.57,2.57,0,0,1,1.7.82,1.5,1.5,0,0,1-1.09,2.33,6.16,6.16,0,0,1-1,0H232.79a1.63,1.63,0,0,1-1.72-1.53,1.61,1.61,0,0,1,1.71-1.67c1.74,0,3.49,0,5.24,0h1v-7.24h-24.9c-2,0-2.37-.42-2.37-2.37V357.58c0-1.92.41-2.33,2.31-2.33H226.6c1.32,0,2.08.63,2.05,1.63s-.79,1.57-2,1.58H215.05v32.08h48.09V385.8c-.47,0-.95,0-1.43,0A1.6,1.6,0,0,1,260,384.1q-.06-3.11,0-6.2c0-1.25.65-1.76,2.05-1.76,3.42,0,6.85,0,10.27,0,1.17,0,2.35,0,3.53,0a1.63,1.63,0,0,1,1.82,1.87c0,1.85,0,3.7,0,5.56s-.48,2.2-2.22,2.24c-.28,0-.57,0-1,0m-59.48,14.32h65.77v-6.29H215.05Zm38.47,3.37H242.41v7.08h11.11Zm20.87-24.1h-11.1v3.07h11.1Zm-7.85,11.1h4.66v-4.67h-4.66Z" transform="translate(-211.78 -341.56)"/><path class="cls-1" d="M275.81,356.86c2.44,2,4.8,4,7.15,6,1.42,1.19,1.55,1.88.37,3.32-4.07,5-9.33,7-15.59,5.51a14.55,14.55,0,0,1-11.41-11.85A15,15,0,0,1,264,343.44a15.39,15.39,0,0,1,17.85,2.27,16.29,16.29,0,0,1,1.67,1.93c1,1.24.89,2-.3,3l-6.56,5.48c-.25.21-.48.42-.82.73m4.42-7.94c-2.62-3.56-8.3-5.07-12.85-3.48a12.06,12.06,0,0,0,.78,23.05c4.45,1.18,10-.54,12-3.76l-7.51-6.32c-1.35-1.13-1.37-2,0-3.12,2.5-2.12,5-4.22,7.57-6.37" transform="translate(-211.78 -341.56)"/><path class="cls-1" d="M227,373.4c0-9.74,3.92-17.28,12.35-22.29a22.47,22.47,0,0,1,11.41-3.1c1.25,0,2,.59,2,1.59s-.73,1.58-2,1.62a21,21,0,0,0-20.55,21c0,1.22,0,2.43,0,3.64s-.64,1.87-1.6,1.86-1.57-.73-1.6-1.89c0-.81,0-1.63,0-2.45" transform="translate(-211.78 -341.56)"/><path class="cls-1" d="M234.82,374.62a57.24,57.24,0,0,1,1-7.9,15.82,15.82,0,0,1,14.84-11.46c1.35,0,2.09.53,2.1,1.56s-.72,1.6-2.06,1.65a12.87,12.87,0,0,0-12.38,12.77c0,2.56,0,5.12,0,7.69,0,1.3-.65,2.06-1.67,2s-1.53-.74-1.54-2,0-2.85,0-4.27Z" transform="translate(-211.78 -341.56)"/><path class="cls-1" d="M243.14,371.82c0-4.7,3-8.07,7.39-8.52,1.28-.13,2.12.41,2.22,1.43s-.53,1.59-1.82,1.76a4.83,4.83,0,0,0-4.59,5.07c0,.46,0,.93,0,1.39a1.59,1.59,0,0,1-3.18,0,11.42,11.42,0,0,1,0-1.17" transform="translate(-211.78 -341.56)"/><path class="cls-1" d="M246.25,379.4A1.53,1.53,0,0,1,244.7,381a1.63,1.63,0,0,1-1.58-1.66,1.47,1.47,0,0,1,1.5-1.48,1.57,1.57,0,0,1,1.63,1.59" transform="translate(-211.78 -341.56)"/><path class="cls-1" d="M236.59,384.21a1.75,1.75,0,0,1,1.71,1.57,1.6,1.6,0,1,1-3.2-.1,1.49,1.49,0,0,1,1.49-1.47" transform="translate(-211.78 -341.56)"/><path class="cls-1" d="M230.18,382.52a1.63,1.63,0,0,1-1.6,1.64,1.67,1.67,0,0,1-1.55-1.71,1.54,1.54,0,0,1,1.54-1.46,1.68,1.68,0,0,1,1.61,1.53" transform="translate(-211.78 -341.56)"/><path class="cls-1" d="M271.26,350.42a1.6,1.6,0,0,1-3.19,0,1.6,1.6,0,0,1,3.19,0" transform="translate(-211.78 -341.56)"/></g></g></svg>