<svg xmlns="http://www.w3.org/2000/svg" viewBox="0 0 37.4 56.99"><defs><style>.cls-1{fill:#151515;}</style></defs><title>movie-icon</title><g id="Layer_2" data-name="Layer 2"><g id="Layer_1-2" data-name="Layer 1"><path class="cls-1" d="M2583.86,1324.41h-23v-1.55c0-1.58-.07-3.18,0-4.76a2.85,2.85,0,0,0-1.67-3.13,9.12,9.12,0,0,1-4.84-9.18,9.4,9.4,0,0,1,6.56-8.6,9.58,9.58,0,0,1,10.44,2.39c.32.31.6.65,1,1.06a10.83,10.83,0,0,1,5.34-3.66,9.91,9.91,0,0,1,7.24,18.35,1.7,1.7,0,0,0-1.1,1.85c.06,2.35,0,4.71,0,7.23m.77-17.93a4.2,4.2,0,1,0-8.4.07,4.2,4.2,0,1,0,8.4-.07m-24.53,0a4.14,4.14,0,0,0,4.1,4.26,4.24,4.24,0,0,0,4.3-4.23,4.31,4.31,0,0,0-4.2-4.23,4.23,4.23,0,0,0-4.2,4.2" transform="translate(-2552.93 -1296.55)"/><path class="cls-1" d="M2570.64,1332.4l-1.43-.41-2.2,5.37-5.91,14.57c-.4,1-1,1.73-2.17,1.49s-1.63-1.36-1.08-2.71c1.55-3.85,3.12-7.68,4.68-11.52,1.15-2.82,2.29-5.65,3.46-8.46a2.8,2.8,0,0,0,.13-2.43,5.38,5.38,0,0,1-.16-1.84h12.73a4.07,4.07,0,0,1,0,1.57c-.6,1.19-.11,2.18.32,3.24q3.8,9.38,7.56,18.76c.14.34.28.68.4,1a1.79,1.79,0,0,1-1,2.34,1.71,1.71,0,0,1-2.28-1.07c-1.1-2.67-2.16-5.35-3.23-8-1.64-4.06-3.27-8.13-4.93-12.27l-1.46.32v18.89c0,1.4-.63,2.21-1.69,2.24s-1.76-.81-1.76-2.29c0-4.48,0-9,0-13.44Z" transform="translate(-2552.93 -1296.55)"/><path class="cls-1" d="M2552.93,1324.32v-9.43c2.09.72,4.1,1.4,6.1,2.13.23.09.36.45.51.7.05.09,0,.24,0,.36,0,1.3.4,2.88-.2,3.8s-2.19,1-3.36,1.4c-1,.35-2,.67-3.06,1" transform="translate(-2552.93 -1296.55)"/><rect class="cls-1" x="32.31" y="21.4" width="3.23" height="3.34"/></g></g></svg>