<svg xmlns="http://www.w3.org/2000/svg" viewBox="0 0 73.49 77.86"><defs><style>.cls-1{fill:#1f1f1f;}</style></defs><title>photography</title><g id="Layer_2" data-name="Layer 2"><g id="Layer_1-2" data-name="Layer 1"><path class="cls-1" d="M428,405.6a7.6,7.6,0,0,0,5.89-2.51,7.27,7.27,0,0,0,2-5.06c0-6.4,0-12.79,0-19.19a11,11,0,0,0-10.73-10.73c-1.41,0-2.81,0-4.22,0a1.35,1.35,0,0,1-1.27-2,1.57,1.57,0,0,1,1-.75c2.57,0,5.15-.25,7.7.39a13.84,13.84,0,0,1,10.29,13q.06,9.67,0,19.35a10.43,10.43,0,0,1-10.3,10.28c-1.81,0-3.61,0-5.41,0h-.68c0,1.42.15,2.85-.67,4.18.26,0,.41,0,.56,0h19.2a1.39,1.39,0,0,1-.09,2.78H371c-1.17,0-1.82-.48-1.83-1.37s.65-1.41,1.84-1.41h10.29c-1-2-.53-4.13-.62-6.18,0-.44-.09-.65-.57-.76a8.66,8.66,0,0,1,0-16.89c.39-.09.57-.22.55-.66,0-.76,0-1.52,0-2.27a5.38,5.38,0,0,1,3.74-5.21c.25-.08.46-.13.44-.48-.19-6,3-9.91,8-12.73a6.36,6.36,0,0,1,.58-.3,1.39,1.39,0,1,1,1.24,2.49,15,15,0,0,0-3.78,2.67,9.85,9.85,0,0,0-3.12,5.79,16.93,16.93,0,0,0,0,2.26h12c0-1.24,0-2.46,0-3.68a.44.44,0,0,0-.3-.26,8.17,8.17,0,0,0-.86,0,1.34,1.34,0,0,1-1.39-1.36q0-4.75,0-9.51c0-.88.62-1.38,1.59-1.38h13.73a1.38,1.38,0,0,1,1.55,1.53q0,4.59,0,9.19a1.39,1.39,0,0,1-1.59,1.54c-1,0-1,0-1,1,0,.81,0,1.62,0,2.43,0,.47.13.62.6.62,1.52,0,3,0,4.54,0a5.37,5.37,0,0,1,5.65,5.63v19.55h2.93V382.68a3.22,3.22,0,0,1,0-.7,1.35,1.35,0,0,1,1.4-1.1,1.37,1.37,0,0,1,1.33,1.19c0,.21,0,.43,0,.65q0,11,0,22Zm-44.54.23v3.86a2.64,2.64,0,0,0,2.91,2.92h30.16a2.66,2.66,0,0,0,3-3V386.09a2.64,2.64,0,0,0-2.95-2.92H387.21c-.43,0-.86,0-1.3,0a2.47,2.47,0,0,0-2.43,2.13c-.11,1.1,0,2.22,0,3.33a8.72,8.72,0,0,1,0,17.2m-7.28-8.62a5.9,5.9,0,1,0,5.9-5.86,5.88,5.88,0,0,0-5.9,5.86m23.81-23.63h11.25V367H399.94Zm2.53,6.76h6.17v-3.95c-2,0-3.93,0-5.87,0-.1,0-.29.21-.29.33,0,1.19,0,2.37,0,3.61" transform="translate(-369.13 -337.53)"/><path class="cls-1" d="M411.16,337.53a11.88,11.88,0,1,1-11.85,11.83,11.88,11.88,0,0,1,11.85-11.83m0,2.79a9.09,9.09,0,1,0,9.11,9,9.08,9.08,0,0,0-9.11-9" transform="translate(-369.13 -337.53)"/><path class="cls-1" d="M405.9,386.13a11.11,11.11,0,1,1-11.13,11.1,11.12,11.12,0,0,1,11.13-11.1m0,19.41a8.32,8.32,0,1,0-8.33-8.25,8.34,8.34,0,0,0,8.33,8.25" transform="translate(-369.13 -337.53)"/><path class="cls-1" d="M405.87,391.13a6.11,6.11,0,1,1-6.1,6.12,6.11,6.11,0,0,1,6.1-6.12m3.34,6.1a3.33,3.33,0,1,0-3.34,3.33,3.35,3.35,0,0,0,3.34-3.33" transform="translate(-369.13 -337.53)"/></g></g></svg>