<svg xmlns="http://www.w3.org/2000/svg" viewBox="0 0 95.49 50.14"><defs><style>.cls-1{opacity:0.09;isolation:isolate;}.cls-2{fill:#eaeaec;}</style></defs><title>production-house</title><g id="Layer_2" data-name="Layer 2"><g id="Layer_1-2" data-name="Layer 1"><path class="cls-2" d="M1268.12,195.74a15.84,15.84,0,0,1,3.43,6,7.89,7.89,0,0,1-4.25,9.61,20.49,20.49,0,0,1-10.61,1.91,43.58,43.58,0,0,1-21.89-7.43,26.8,26.8,0,0,1-8.38-8.31,11,11,0,0,1-1.92-6.54c.24-3.39,2.26-5.47,5.17-6.84a21.15,21.15,0,0,1,10.6-1.57,43.63,43.63,0,0,1,21.57,7.6,26.52,26.52,0,0,1,6.28,5.58m-30.37.65.18-.06c.46.43.88.89,1.36,1.28a24.06,24.06,0,0,0,12.52,5,13,13,0,0,0,6-.48c2.44-.89,3.11-2.75,1.75-5a11.36,11.36,0,0,0-3.87-3.55,26.57,26.57,0,0,0-9-3.38,15.83,15.83,0,0,0-7,0c-2,.51-3.26,1.74-3,3.34a12.84,12.84,0,0,0,1,2.76" transform="translate(-1176.8 -182.48)"/><path class="cls-2" d="M1191.48,217.34a13.06,13.06,0,0,1-4.21-2.64,25.46,25.46,0,0,1-5.54-7.68,1,1,0,0,1,.1-.85c1.82-2.6,3.67-5.18,5.5-7.78,1.24-1.77,2.46-3.57,3.73-5.41.64,1,1.19,1.92,1.86,2.78,1,1.29,2.07,2.58,3.22,3.77a6.32,6.32,0,0,0,3.74,1.63l.73.11c-3.06,5.4-6.08,10.71-9.13,16.07" transform="translate(-1176.8 -182.48)"/><path class="cls-2" d="M1244.14,232.21c1.5-5.53,3-11,4.4-16.24l10,.23c-1.14,5.19-2.31,10.49-3.47,15.76a28.21,28.21,0,0,1-10.88.25" transform="translate(-1176.8 -182.48)"/><path class="cls-2" d="M1247.27,215.65c-1.83,5.27-3.69,10.57-5.56,15.95a37.2,37.2,0,0,1-9-4.16l6.36-14.82,8.2,3" transform="translate(-1176.8 -182.48)"/><path class="cls-2" d="M1272.28,209.89c-.53,2.4-1,4.81-1.62,7.18a37.24,37.24,0,0,1-3.62,9.13,1.67,1.67,0,0,1-.42.58,32.14,32.14,0,0,1-9.11,4.55c.25-1.64.49-3.18.72-4.72.52-3.38,1-6.75,1.53-10.14.07-.5.28-.65.73-.77a52.88,52.88,0,0,0,5.85-1.67,11.12,11.12,0,0,0,5.63-4.26l.31.12" transform="translate(-1176.8 -182.48)"/><path class="cls-2" d="M1230.38,206.17c.87.74,1.62,1.45,2.43,2.06,1.35,1,2.73,2,4.12,2.92.35.25.46.43.29.85-1.88,4.86-3.75,9.73-5.68,14.73-.9-.66-1.77-1.25-2.58-1.91-1-.85-2-1.77-3.11-2.62a.93.93,0,0,1-.3-1.2c1.11-3.36,2.19-6.71,3.29-10.07l1.54-4.76" transform="translate(-1176.8 -182.48)"/><path class="cls-2" d="M1223.61,219.88a29.61,29.61,0,0,1-4.18-6.78,4.27,4.27,0,0,1,.14-4c1.51-3,2.85-6.1,4.26-9.16.11-.24.23-.48.41-.84.4.53.7,1,1.06,1.41,1.19,1.41,2.39,2.82,3.61,4.2a.86.86,0,0,1,.22,1q-2.69,6.9-5.33,13.83c0,.07-.08.14-.19.33" transform="translate(-1176.8 -182.48)"/><path class="cls-2" d="M1192.61,217.71l3.86-6.23c2.08-3.34,4.14-6.69,6.22-10a1.9,1.9,0,0,1,.62-.61c1.89-1.06,3.79-2.09,5.65-3.11a.67.67,0,0,1,0,.26q-4.2,9.4-8.41,18.8a.94.94,0,0,1-.47.49,12.82,12.82,0,0,1-7.43.43" transform="translate(-1176.8 -182.48)"/><path class="cls-2" d="M1215.64,193.29q-1,2.73-2,5.41c-1.59,4.36-3.17,8.73-4.76,13.08a1.46,1.46,0,0,1-.39.69c-2.14,1.41-4.3,2.8-6.45,4.19l-.22-.21c.07-.21.13-.43.21-.63q4.11-9.48,8.24-19a6.24,6.24,0,0,1,5.37-3.57" transform="translate(-1176.8 -182.48)"/><path class="cls-2" d="M1191.19,187.63c.92,1,1.82,1.91,2.69,2.86,1.16,1.25,1.15,1.26.18,2.68l-.93,1.35-1.87-2.7-3.48,4.94c-2.19,3.1-4.37,6.21-6.58,9.31a1,1,0,0,0-.06,1.28c1.22,1.76,1.19,1.78,0,3.52a2.3,2.3,0,0,1-.23.28c-1.37-1.65-2.73-3.26-4-4.92-.1-.14,0-.6.21-.8,2.4-3.06,4.81-6.09,7.23-9.13l6.59-8.28c.08-.11.17-.2.33-.39" transform="translate(-1176.8 -182.48)"/><path class="cls-2" d="M1217.73,208.46a15.37,15.37,0,0,0-7.31,2.64c.53-1.51,1-2.81,1.43-4.1,1.53-4.29,3.09-8.57,4.56-12.88.3-.89.73-1.17,1.58-.93s1.87.54,2.8.82c.39.11.55.33.43.79-1.17,4.54-2.32,9.08-3.49,13.66" transform="translate(-1176.8 -182.48)"/><path class="cls-2" d="M1244.66,196.27c-1.06-1.25-.69-2.38.89-2.76,2.15-.52,5.94.92,7.21,2.73a1.43,1.43,0,0,1-.92,2.45,8.49,8.49,0,0,1-7.18-2.42" transform="translate(-1176.8 -182.48)"/></g></g></svg>