<svg xmlns="http://www.w3.org/2000/svg" viewBox="0 0 56.87 52.13"><defs><style>.cls-1{fill:#1f1f1f;}</style></defs><title>ui-ux-design</title><g id="Layer_2" data-name="Layer 2"><g id="Layer_1-2" data-name="Layer 1"><path class="cls-1" d="M1142.75,409.65V412l.29,0h4.4a1.18,1.18,0,0,1,1.17.86,1.16,1.16,0,0,1-.52,1.33,1.63,1.63,0,0,1-.75.18h-21.08a1.19,1.19,0,0,1-1.28-1,1.17,1.17,0,0,1,1.14-1.37h4.74v-2.38h-17.81a4.71,4.71,0,0,1-4.59-3.88,6.35,6.35,0,0,1-.08-1q0-3.39,0-6.78,0-8.72,0-17.42c0-1.45,0-2.91,0-4.36,0-3,0-6,0-9a4.89,4.89,0,0,1,.92-3,4.65,4.65,0,0,1,3.26-1.92,7.47,7.47,0,0,1,1,0h46.88a4.76,4.76,0,0,1,4.86,4.87v36.49a1.19,1.19,0,0,1-.89,1.24,1.16,1.16,0,0,1-1.48-1.13c0-1.07,0-2.15,0-3.23,0-.25-.06-.33-.32-.33h-51.78c0,.11,0,.2,0,.28v4.34a2.36,2.36,0,0,0,1.66,2.35,2.47,2.47,0,0,0,.77.11h42.22c.84,0,1.68,0,2.52,0a1.13,1.13,0,0,1,1,1.21,1.16,1.16,0,0,1-1.13,1.12c-.9,0-1.79,0-2.68,0h-12.41Zm20.12-11.84v-.28q0-15.15,0-30.3a3.44,3.44,0,0,0-.06-.72,2.37,2.37,0,0,0-2.31-1.85c-2.64,0-5.29,0-7.94,0h-39.24a2.4,2.4,0,0,0-2.56,2.55v30.3c0,.1,0,.2,0,.31ZM1133.27,412h7.08v-2.35h-7.08Z" transform="translate(-1108.37 -362.28)"/><path class="cls-1" d="M1136.77,404.93h-1.13a1.19,1.19,0,1,1,0-2.38H1138a1.19,1.19,0,1,1,0,2.38h-1.22" transform="translate(-1108.37 -362.28)"/><path class="cls-1" d="M1163.6,407.91a1.17,1.17,0,0,1-1.21,1.19,1.19,1.19,0,0,1,0-2.38,1.2,1.2,0,0,1,1.19,1.19" transform="translate(-1108.37 -362.28)"/><path class="cls-1" d="M1136.78,395.45h-20a1.19,1.19,0,1,1,0-2.38l4.63,0,5.26,0h30.26a1.15,1.15,0,0,1,1.16.85,1.13,1.13,0,0,1-.47,1.32,1.47,1.47,0,0,1-.74.2h-20.08" transform="translate(-1108.37 -362.28)"/><path class="cls-1" d="M1136.81,367h20.11a1.18,1.18,0,1,1,0,2.36h-40.21a1.19,1.19,0,0,1-.86-2.07,1.1,1.1,0,0,1,.79-.3h20.14Z" transform="translate(-1108.37 -362.28)"/><path class="cls-1" d="M1123.81,380c0,1.1,0,2.2,0,3.3a4.15,4.15,0,0,1-8.3-.3v-6.47a1.15,1.15,0,0,1,1-1.18,1.18,1.18,0,0,1,1.34.77,2.08,2.08,0,0,1,.07.61V383a1.79,1.79,0,1,0,3.58,0v-6.32a1.22,1.22,0,0,1,.86-1.29,1.15,1.15,0,0,1,1.5,1c0,1.05,0,2.1,0,3.15V380Z" transform="translate(-1108.37 -362.28)"/><path class="cls-1" d="M1153.63,379.94v3a4.17,4.17,0,0,1-8.33.1c0-1.89,0-3.79,0-5.69,0-.27,0-.54,0-.81a1.19,1.19,0,1,1,2.38,0c0,1.15,0,2.3,0,3.44,0,1,0,2,0,2.93a1.79,1.79,0,0,0,3.13,1.23,1.83,1.83,0,0,0,.46-1.29c0-2.11,0-4.23,0-6.34a1.19,1.19,0,1,1,2.37,0c0,1.14,0,2.28,0,3.42" transform="translate(-1108.37 -362.28)"/><path class="cls-1" d="M1129.51,383.89l-1.26,2.52a1.18,1.18,0,0,1-1.71.58,1.15,1.15,0,0,1-.47-1.52q1-2,2-4a.45.45,0,0,0,0-.45l-2-3.95a1.18,1.18,0,0,1,.49-1.61,1.14,1.14,0,0,1,1.57.45c.43.78.81,1.59,1.22,2.38a2.78,2.78,0,0,0,.15.3c.18-.36.35-.68.51-1,.27-.51.52-1,.78-1.54a1.2,1.2,0,0,1,1.62-.6,1.21,1.21,0,0,1,.51,1.67c-.6,1.18-1.17,2.38-1.8,3.54a1.1,1.1,0,0,0,0,1.18c.6,1.11,1.16,2.24,1.71,3.37a2,2,0,0,1,.23.85,1.13,1.13,0,0,1-.93,1.11,1.25,1.25,0,0,1-1.32-.69c-.39-.77-.78-1.54-1.16-2.32,0-.07-.09-.14-.15-.25" transform="translate(-1108.37 -362.28)"/><path class="cls-1" d="M1143.85,373c-.13.4-.27.84-.43,1.28q-1.87,5.24-3.77,10.48c-.62,1.72-1.23,3.44-1.86,5.16a1.18,1.18,0,0,1-1.51.73,1.21,1.21,0,0,1-.72-1.56c.46-1.27.91-2.53,1.37-3.79l2.22-6.15c.53-1.47,1-2.94,1.57-4.41.26-.72.51-1.44.78-2.16a1.19,1.19,0,0,1,2.23-.09,3.52,3.52,0,0,1,.12.51" transform="translate(-1108.37 -362.28)"/><path class="cls-1" d="M1158.12,381.25V386a1.18,1.18,0,0,1-2.15.68,1.62,1.62,0,0,1-.21-.71c0-3.13,0-6.25,0-9.38a1.16,1.16,0,0,1,1-1.22,1.14,1.14,0,0,1,1.32.88,1.58,1.58,0,0,1,0,.38v4.66" transform="translate(-1108.37 -362.28)"/></g></g></svg>