<svg xmlns="http://www.w3.org/2000/svg" viewBox="0 0 63.13 72.15"><defs><style>.cls-1{fill:#1f1f1f;}</style></defs><title>videographer</title><g id="Layer_2" data-name="Layer 2"><g id="Layer_1-2" data-name="Layer 1"><path class="cls-1" d="M558.66,394.77c0,.46,0,.83,0,1.21a3.36,3.36,0,0,1-3.36,3.29c-1.81,0-3.61,0-5.42,0a.74.74,0,0,0-.18.06,2.35,2.35,0,0,0,.6,2.26c2.84,2.89,5.62,5.85,8.43,8.79a4.79,4.79,0,0,1,.43.47,1.12,1.12,0,0,1,0,1.63,1.11,1.11,0,0,1-1.63-.1c-1.44-1.49-2.86-3-4.28-4.48-1.15-1.2-2.3-2.4-3.54-3.71,0,.34-.05.54-.05.74,0,2.18,0,4.37,0,6.55a1.58,1.58,0,0,1-.61,1.13,1.2,1.2,0,0,1-1.14-.1,1.53,1.53,0,0,1-.45-1.09c0-2.14,0-4.27,0-6.41v-.83c-.3.29-.49.47-.67.66q-3.51,3.67-7,7.34a2.13,2.13,0,0,1-.65.51,1,1,0,0,1-1.31-.37,1.08,1.08,0,0,1,.12-1.48l4.61-4.84c1.38-1.45,2.71-2.94,4.15-4.31a2.36,2.36,0,0,0,.68-2.43h-5.37a3.37,3.37,0,0,1-3.57-3.58v-.92h-8.28a3.37,3.37,0,0,1-3.56-3.59V380.11h-1.59a1.13,1.13,0,1,1,0-2.25h1.55c0-.29,0-.54,0-.79,0-1.59,0-3.19,0-4.79a3.34,3.34,0,0,1,3.42-3.44h37.13a3.32,3.32,0,0,1,3.4,3.39q0,9.57,0,19.15a3.33,3.33,0,0,1-3.41,3.38c-2.49,0-5,0-7.47,0Zm-10.15-23.68H530.34c-1.19,0-1.55.37-1.55,1.56V391c0,1.19.37,1.55,1.56,1.55h36.34c1.19,0,1.55-.36,1.55-1.56V372.72c0-1.29-.34-1.63-1.63-1.63h-18.1m7.9,23.73H540.66a4.38,4.38,0,0,0,0,.47c0,1.4.3,1.73,1.72,1.73H555c1,0,1.37-.42,1.39-1.37v-.83" transform="translate(-523.72 -340.66)"/><path class="cls-1" d="M574.44,353.66a13,13,0,1,1-12.91-13,13,13,0,0,1,12.91,13M561.5,342.92a10.71,10.71,0,1,0,10.68,10.74,10.7,10.7,0,0,0-10.68-10.74" transform="translate(-523.72 -340.66)"/><path class="cls-1" d="M572.78,388.57v-2.23h2.74v-9H572.8V375c.9,0,1.81-.05,2.71,0a3.51,3.51,0,0,0,2.24-.63c1.79-1.16,3.62-2.26,5.42-3.41a2.27,2.27,0,0,1,2.52-.18,2.34,2.34,0,0,1,1.16,2.24q0,8.74,0,17.47a2.33,2.33,0,0,1-1.17,2.24,2.3,2.3,0,0,1-2.52-.19c-1.94-1.23-3.89-2.45-5.86-3.64a3,3,0,0,0-1.31-.37c-1-.05-2.1,0-3.21,0m11.74,2.19V372.84c-2.2,1.41-4.32,2.76-6.41,4.13a.76.76,0,0,0-.27.58c0,2.84,0,5.67,0,8.51a.78.78,0,0,0,.27.58c2.1,1.37,4.21,2.71,6.41,4.12" transform="translate(-523.72 -340.66)"/><path class="cls-1" d="M546.26,356.43a10.15,10.15,0,1,1-10.12-10.14,10.15,10.15,0,0,1,10.12,10.14m-2.26,0a7.89,7.89,0,1,0-7.86,7.92,7.89,7.89,0,0,0,7.86-7.92" transform="translate(-523.72 -340.66)"/><path class="cls-1" d="M548.51,364.33c.72,0,1.45,0,2.17,0a1.1,1.1,0,0,1,1.21,1.09,1.11,1.11,0,0,1-1.23,1.15c-1.42,0-2.85,0-4.28,0a1.11,1.11,0,0,1-1.24-1.13c0-.67.48-1.1,1.26-1.11s1.4,0,2.11,0" transform="translate(-523.72 -340.66)"/><path class="cls-1" d="M534.42,388a1.13,1.13,0,1,1-2.25,0,1.14,1.14,0,0,1,1.12-1.12,1.13,1.13,0,0,1,1.13,1.09" transform="translate(-523.72 -340.66)"/><path class="cls-1" d="M538.93,388a1.11,1.11,0,0,1-1.14,1.08,1.13,1.13,0,0,1-1.11-1.19,1.13,1.13,0,0,1,2.25.11" transform="translate(-523.72 -340.66)"/><path class="cls-1" d="M543.44,388a1.13,1.13,0,1,1-1.11-1.12,1.13,1.13,0,0,1,1.11,1.12" transform="translate(-523.72 -340.66)"/><path class="cls-1" d="M561.47,359.26a5.64,5.64,0,1,1,5.64-5.63,5.65,5.65,0,0,1-5.64,5.63m3.38-5.66a3.38,3.38,0,1,0-3.32,3.4,3.38,3.38,0,0,0,3.32-3.4" transform="translate(-523.72 -340.66)"/><path class="cls-1" d="M540.62,356.43a4.51,4.51,0,1,1-4.53-4.5,4.49,4.49,0,0,1,4.53,4.5m-2.26,0a2.25,2.25,0,1,0-2.23,2.25,2.26,2.26,0,0,0,2.23-2.25" transform="translate(-523.72 -340.66)"/></g></g></svg>